<svg xmlns="http://www.w3.org/2000/svg" xml:space="preserve" id="图层_1" x="0" y="0" viewBox="0 0 146 34"><style>.st5{fill:#f67d28}</style><linearGradient id="SVGID_1_" x1="44.433" x2="-1.358" y1="29.801" y2="6.551" gradientTransform="matrix(1 0 0 -1 0 36)" gradientUnits="userSpaceOnUse"><stop offset=".13" style="stop-color:#ffb91d"/><stop offset=".88" style="stop-color:#ff5a12"/></linearGradient><path d="M47.9 8.3C46.4 5 34.5 7.1 21.4 13c-3.7 1.6-7.1 3.4-10.1 5.2-.1-.9-.1-1.8 0-2.8.2-1 .4-2.1.8-3s.9-1.8 1.5-2.6c.7-.8 1.4-1.5 2.2-2.2.9-.6 1.8-1.1 2.7-1.6 1-.4 2-.7 3-.8.8-.1 1.6-.1 2.4-.1.6 0 1.4-.3 1.8-.7s.8-1.2.7-1.8c0-.7-.2-1.3-.7-1.8-.4-.5-1-.7-1.7-.8-4.9-.3-9.8 1.7-13.1 5.3-1.7 1.8-3 4-3.8 6.4-1 3-1.1 6.3-.4 9.3 0 .1 0 .2.1.2-4.7 3.4-7.3 6.5-6.5 8.3.9 2 5.5 2 11.9.4 1.1.9 2.2 1.7 3.5 2.3 2.4 1.1 4.9 1.8 7.5 1.8s5.2-.6 7.6-1.8c1.2-.6 2.2-1.3 3.2-2.1.8-.7 1.6-1.4 2.3-2.2 1.8-2.2 3.1-4.7 3.6-7.5.2-.8.3-1.7.3-2.6v-.4c5.4-3.7 8.5-7.2 7.7-9.1M5.2 28.9c-.4-.9.7-2.3 2.8-4.1.9 1.7 2 3.2 3.4 4.5-3.4.7-5.7.6-6.2-.4m38.9-16.8c0 1-1.3 2.4-3.5 4.1-.1.1-.2.1-.3.2l-.1.1c-.1.1-.2.1-.3.2-.1-.3-.3-.5-.5-.7-.4-.4-1.2-.8-1.8-.7-.7 0-1.3.2-1.8.7s-.7 1.1-.7 1.8c0 .3 0 .5-.1.8-.2 1-.4 2.1-.8 3s-.9 1.8-1.5 2.6c-.7.8-1.4 1.5-2.2 2.2-.8.6-1.7 1.1-2.6 1.5-1 .4-2 .7-3 .8-1.1.1-2.1.1-3.2 0-1-.2-2.1-.4-3-.8s-1.8-.9-2.6-1.5c-.8-.7-1.5-1.4-2.2-2.2-.6-.8-1-1.6-1.4-2.4 2.9-1.8 6.5-3.7 10.6-5.5 5.8-2.6 11.3-4.4 15.2-5.2 3.1-.6 5.2-.5 5.8.3 0 .1.1.1.1.2-.2.2-.1.3-.1.5" style="fill:url(#SVGID_1_)"/><linearGradient id="SVGID_2_" x1="45.578" x2="24.206" y1="26.43" y2="18.456" gradientTransform="matrix(1 0 0 -1 0 36)" gradientUnits="userSpaceOnUse"><stop offset=".04" style="stop-color:#ffe3c7"/><stop offset=".84" style="stop-color:#ff9a15"/></linearGradient><path d="M40.1 17.4c0-.2-.1-.5-.2-.7.1-.1.2-.1.3-.2l.1-.1c.1-.1.2-.2.3-.2 2.4-1.9 3.5-3.2 3.5-4.1 0-.2-.1-.4-.2-.6C41.7 8.3 21.4 13 21.4 13c13.2-5.9 25-8 26.5-4.7.8 1.9-2.3 5.4-7.8 9.1" style="opacity:.8;fill:url(#SVGID_2_)"/><linearGradient id="SVGID_3_" x1="31.907" x2="31.907" y1="35.688" y2="29.52" gradientTransform="matrix(1 0 0 -1 0 36)" gradientUnits="userSpaceOnUse"><stop offset=".13" style="stop-color:#ffb91d"/><stop offset=".88" style="stop-color:#ff5a12"/></linearGradient><path d="m34.9 3.9-1.8 1-1 1.8c-.1.2-.4.2-.5 0l-1-1.8-1.8-1c-.1-.1-.2-.2-.2-.3s.1-.2.2-.3l1.8-1 1-1.8c.1-.1.2-.2.3-.2s.2.1.3.2l1 1.8 1.8 1c.2.2.2.5-.1.6" style="fill:url(#SVGID_3_)"/><linearGradient id="SVGID_4_" x1="17.981" x2="32.505" y1="10.531" y2="17.874" gradientTransform="matrix(1 0 0 -1 0 36)" gradientUnits="userSpaceOnUse"><stop offset="0" style="stop-color:#ffd6a9"/><stop offset=".83" style="stop-color:#ff791f"/></linearGradient><path d="M33.6 15.2s-1.4 7.8-8.4 10c-1.5.4-2.9.6-4.1.6-2.3-.1-3.8-.8-4.2-1.4-.6-.9.3-2.4 4.3-4s12.2-5.1 12.4-5.2" style="fill:url(#SVGID_4_)"/><linearGradient id="SVGID_5_" x1="34.853" x2="22.084" y1="22.297" y2="9.369" gradientTransform="matrix(1 0 0 -1 0 36)" gradientUnits="userSpaceOnUse"><stop offset=".13" style="stop-color:#ffb91d"/><stop offset=".88" style="stop-color:#ff5a12"/></linearGradient><path d="M33.6 15.2s-1.4 7.8-8.4 10c-1.5.4-2.9.6-4.1.6-2.6-2.2 12.2-10.4 12.5-10.6" style="fill:url(#SVGID_5_)"/><path d="M64.5 27c-2.5 0-4.6-.8-6.1-2.5s-2.4-4-2.4-6.9q0-4.35 2.4-6.9C60 9 62.1 8.2 64.6 8.2c1.7 0 3.2.5 4.6 1.5.3.2.4.5.4.9 0 .3-.1.6-.3.8s-.5.4-.8.4h-.1c-.3 0-.6-.1-.8-.2-.8-.6-1.8-.9-2.9-.9-1.7 0-3.1.6-4.1 1.9-1 1.2-1.6 2.9-1.6 5s.5 3.9 1.5 5.1 2.4 1.9 4.3 1.9c1.1 0 2.1-.2 2.7-.8.1-.1.1-.2.1-.3v-3.9c0-.1-.1-.2-.2-.2h-2.3c-.3 0-.6-.1-.8-.3s-.4-.5-.4-.8.1-.6.4-.8c.2-.2.5-.3.8-.3h3.6c.4 0 .7.1 1 .4s.4.6.4 1v5c0 1.1-.4 1.9-1.1 2.3-1.2.7-2.8 1.1-4.5 1.1M77 10.1c-.4.3-.8.5-1.3.5s-1-.2-1.3-.5c-.4-.3-.5-.7-.5-1.2s.2-.9.5-1.2c.4-.3.8-.5 1.3-.5s1 .2 1.3.5c.4.3.5.7.5 1.2s-.2.9-.5 1.2m-.4 16.2c-.3.3-.6.4-1 .4s-.7-.1-1-.4-.4-.6-.4-1V14.5c0-.4.1-.7.4-1s.6-.4 1-.4.7.1 1 .4.4.6.4 1v10.8c.1.4-.1.7-.4 1M86 27c-1.5 0-2.5-.4-3.2-1.2s-1-2-1-3.5v-6.7c0-.1-.1-.2-.2-.2h-.7c-.3 0-.6-.1-.8-.3s-.3-.5-.3-.7c0-.3.1-.6.3-.8s.5-.3.8-.3l.9-.1c.1 0 .2-.1.2-.2l.2-2.4c0-.3.2-.6.4-.9.3-.2.5-.3.9-.3s.6.1.8.3.4.5.4.9V13c0 .1.1.2.2.2h2.2c.3 0 .6.1.8.3s.3.5.3.8-.1.6-.3.8-.5.3-.8.3h-2.2c-.1 0-.2.1-.2.2v6.7c0 .8.2 1.4.5 1.9q.45.6 1.5.6h.6c.2 0 .4.1.6.2s.4.3.5.6v.3c0 .2 0 .4-.1.6-.2.3-.4.4-.7.5-.6-.1-1.1 0-1.6 0M93.7 26.3c-.2.2-.6.4-.9.4-.4 0-.7-.1-.9-.4-.3-.2-.4-.6-.4-.9V9.9c0-.4.1-.7.4-1s.6-.4 1-.4h.5c.4 0 .8.1 1.2.4.4.2.6.6.7 1l2.9 7.8c.1.4.4 1 .6 1.9.3.8.5 1.4.6 1.7 0 0 0 .1.1.1 0 0 .1 0 .1-.1q.15-.6.6-1.8c.3-.8.5-1.4.6-1.9l2.8-7.8c.1-.4.4-.7.7-1 .4-.2.7-.4 1.2-.4h.5c.4 0 .7.1 1 .4s.4.6.4 1v15.4c0 .4-.1.7-.4.9-.3.3-.6.4-1 .4s-.7-.1-1-.4-.4-.6-.4-.9v-7.7c0-1 .1-2.9.4-5.6l-1.5 4.2-2.9 7.8c-.1.2-.2.4-.5.6-.2.2-.5.2-.7.2-.3 0-.5-.1-.7-.2s-.4-.3-.5-.6l-2.9-7.8-1.4-4.2h-.1q-.15 0 0 0c.2 3 .3 4.9.3 5.6v7.7c0 .5-.1.9-.4 1.1M114.6 10.1c-.4.3-.8.5-1.3.5s-1-.2-1.3-.5c-.4-.3-.5-.7-.5-1.2s.2-.9.5-1.2c.4-.3.8-.5 1.3-.5s1 .2 1.3.5c.4.3.5.7.5 1.2.1.5-.1.9-.5 1.2m-.3 16.2c-.3.3-.6.4-1 .4s-.7-.1-1-.4-.4-.6-.4-1V14.5c0-.4.1-.7.4-1s.6-.4 1-.4.7.1 1 .4.4.6.4 1v10.8c0 .4-.1.7-.4 1M121.5 26.3c-.3.3-.6.4-1 .4s-.7-.1-1-.4-.4-.6-.4-1v-11c0-.3.1-.6.3-.8s.5-.3.8-.3q.45 0 .9.3c.2.2.4.5.4.8l.1.7h.2c.7-.7 1.5-1.3 2.2-1.6.7-.4 1.5-.6 2.3-.6q4.2 0 4.2 5.4v7.1c0 .4-.1.7-.4 1s-.6.4-1 .4-.7-.1-1-.4-.4-.6-.4-1v-6.8c0-1.2-.2-2-.5-2.5-.4-.5-1-.8-1.8-.8-.6 0-1.1.1-1.6.4s-1 .7-1.7 1.3c-.1.1-.1.2-.1.3v8c-.1.5-.3.8-.5 1.1M139.3 27c-1.7 0-3.1-.6-4.1-1.9s-1.5-3-1.5-5.2.6-3.8 1.7-5.2c1.2-1.3 2.5-2 4.2-2 .7 0 1.3.1 1.9.3s1.1.6 1.7 1.1h.1V14l-.1-2.1V8.4c0-.4.1-.7.4-1s.6-.4 1-.4.7.1 1 .4.4.6.4 1v17.1c0 .3-.1.6-.3.8s-.5.3-.8.3q-.45 0-.9-.3c-.2-.2-.4-.5-.5-.8v-.3h-.1c-1.3 1.2-2.6 1.8-4.1 1.8m.7-2.4q1.65 0 3-1.5c.1-.1.1-.2.1-.3v-6.3c0-.1 0-.2-.1-.3-.9-.7-1.8-1.1-2.9-1.1-1 0-1.8.4-2.5 1.3s-1 2-1 3.4q0 2.25.9 3.6c.6.8 1.4 1.2 2.5 1.2" class="st5"/></svg>