<svg xmlns="http://www.w3.org/2000/svg" fill="none" viewBox="0 0 30 30"><rect width="30" height="30" fill="currentColor" rx="8"/><path fill="#fff" fill-rule="evenodd" d="M15.373 4.536h-.831c-1.523 0-2.758 3.215-2.758 7.182 0 .76.045 1.493.13 2.182h-3.14L5.962 23.999h7.91l.007-5.309c.212.137.434.21.663.21h.83a7.182 7.182 0 0 0 0-14.364m.918 7.182c0 1.891-.296 3.559-.74 4.716-.224.582-.466.984-.682 1.223a1 1 0 0 1-.246.206c-.05.027-.075.028-.081.028s-.031 0-.082-.028a1 1 0 0 1-.245-.206c-.217-.239-.458-.64-.682-1.223-.444-1.157-.74-2.825-.74-4.716s.296-3.56.74-4.717c.224-.582.465-.984.682-1.223a1 1 0 0 1 .245-.206c.051-.027.075-.027.082-.027.006 0 .03 0 .081.027.056.03.14.09.246.206.216.24.458.64.682 1.223.444 1.157.74 2.825.74 4.717" clip-rule="evenodd"/><path fill="#fff" d="M15.326 18.9v-.435l-.826.035.094.4 2.229 5.1h7.866l-2.881-4.338h-3.962z"/></svg>